<?xml version="1.0" standalone="no"?>
<!DOCTYPE svg PUBLIC "-//W3C//DTD SVG 20010904//EN"
 "http://www.w3.org/TR/2001/REC-SVG-20010904/DTD/svg10.dtd">
<svg version="1.0" xmlns="http://www.w3.org/2000/svg"
 width="460.000000pt" height="460.000000pt" viewBox="0 0 460.000000 460.000000"
 preserveAspectRatio="xMidYMid meet">

<g transform="translate(0.000000,460.000000) scale(0.100000,-0.100000)"
fill="#000000" stroke="none">
<path d="M2165 4283 c-203 -27 -368 -129 -485 -299 -109 -157 -143 -326 -106
-514 52 -261 264 -463 526 -502 70 -10 75 -12 84 -43 5 -19 -2 -23 -71 -44
-119 -34 -139 -51 -184 -146 -21 -46 -57 -138 -79 -206 -22 -68 -42 -125 -44
-127 -2 -2 -39 18 -83 45 -162 101 -236 123 -344 105 -87 -15 -127 -35 -135
-68 -8 -33 20 -64 58 -64 33 0 36 -10 8 -27 -30 -20 -90 -115 -90 -145 0 -17
10 -34 28 -48 37 -30 88 -22 202 31 l89 41 73 -47 c40 -26 96 -62 123 -80 72
-48 145 -85 167 -85 10 0 21 -7 24 -15 4 -8 -6 -95 -21 -193 -25 -155 -29
-220 -36 -527 -11 -455 -19 -685 -24 -712 -3 -14 -23 -30 -58 -46 -66 -31
-155 -96 -163 -120 -12 -36 13 -47 107 -47 48 0 110 4 136 9 26 5 81 15 121
21 50 8 81 19 97 34 l24 23 7 449 c3 247 10 459 15 472 5 13 9 38 9 55 0 18 4
37 8 43 4 6 56 10 140 10 124 -1 133 -2 137 -21 3 -11 11 -65 20 -120 8 -55
20 -122 25 -150 20 -101 39 -336 45 -550 8 -294 5 -280 63 -298 26 -8 81 -20
122 -27 41 -6 108 -18 149 -26 80 -15 122 -17 170 -8 64 13 33 52 -123 158
-37 25 -72 46 -76 46 -4 0 -11 60 -14 133 -4 72 -13 224 -21 337 -8 113 -19
288 -25 390 -6 102 -17 237 -25 300 -9 63 -20 174 -25 245 -5 72 -14 146 -20
165 -5 19 -10 51 -10 70 l1 35 21 -30 c73 -99 107 -112 193 -71 44 20 160 105
176 129 4 5 41 -8 83 -29 92 -45 168 -53 192 -19 38 52 23 124 -38 188 -28 30
-35 43 -27 53 32 39 -28 90 -131 113 -41 9 -49 7 -105 -25 -33 -19 -91 -55
-128 -79 -45 -30 -69 -41 -72 -33 -2 7 -22 67 -44 133 -22 66 -51 151 -65 190
-14 38 -26 71 -26 72 0 1 -17 12 -37 25 -42 25 -106 48 -140 48 -30 0 -36 15
-19 47 24 47 58 70 136 93 41 12 87 31 102 41 14 11 30 19 35 19 17 0 108 99
141 153 61 101 76 157 80 313 3 120 1 153 -16 215 -59 211 -230 400 -439 484
-119 48 -283 72 -388 58z m295 -93 c150 -36 286 -119 371 -226 71 -89 139
-290 139 -407 -1 -71 -33 -214 -64 -279 -67 -142 -223 -244 -416 -272 l-45 -7
0 -112 c0 -102 2 -112 19 -115 11 -2 25 3 32 13 16 21 116 24 140 4 20 -16 56
-89 79 -157 34 -106 81 -303 73 -308 -4 -3 -8 -14 -8 -25 0 -26 32 -25 67 4
15 13 64 48 108 77 44 29 96 65 115 80 34 27 36 27 82 13 42 -14 47 -18 46
-45 -1 -22 11 -42 49 -81 56 -57 73 -85 73 -116 0 -18 -6 -21 -37 -21 -21 0
-58 9 -82 20 -24 11 -53 20 -66 20 -13 0 -33 9 -46 19 l-24 19 -60 -53 c-82
-71 -153 -115 -188 -115 -44 0 -90 54 -111 131 -27 94 -74 159 -115 159 -14 0
-14 -35 -1 -59 5 -10 14 -58 19 -107 5 -49 21 -166 35 -260 46 -314 85 -811
86 -1080 0 -173 15 -356 31 -386 5 -10 16 -18 24 -18 7 0 15 -3 17 -8 2 -4 29
-29 61 -56 32 -27 56 -51 54 -53 -2 -2 -53 3 -113 11 -60 8 -138 18 -174 21
l-65 7 -1 236 c-1 173 -7 281 -23 402 -11 91 -23 206 -26 255 -7 103 -31 219
-53 253 -17 26 -42 29 -42 6 0 -13 -6 -15 -27 -9 -45 11 -284 18 -293 9 -18
-18 -29 -230 -35 -644 -4 -234 -8 -426 -10 -428 -2 -2 -18 -6 -37 -8 -18 -3
-88 -14 -156 -25 -174 -27 -177 -26 -83 31 45 27 88 50 95 50 20 0 25 84 36
508 6 229 17 458 30 583 16 168 84 659 118 849 7 41 6 48 -14 63 -21 15 -22
15 -29 -1 -3 -9 -13 -59 -21 -112 -8 -52 -21 -129 -29 -170 -8 -41 -14 -92
-15 -112 0 -20 -5 -40 -11 -43 -19 -12 -347 161 -380 201 -17 21 -34 17 -93
-22 -48 -31 -130 -64 -160 -64 -6 0 -17 4 -25 9 -20 13 19 77 80 131 48 42 62
70 35 70 -8 0 -16 7 -20 15 -3 9 -19 15 -43 16 l-38 1 30 9 c17 5 66 14 110
20 l81 11 84 -55 c182 -117 254 -142 256 -87 1 27 66 249 92 315 27 69 79 132
122 149 70 28 110 18 115 -27 4 -34 13 -47 31 -47 24 0 34 46 32 143 l-3 91
-73 13 c-182 30 -284 77 -387 177 -82 79 -128 162 -160 285 -20 77 -22 235 -4
306 15 65 62 169 91 204 13 16 30 42 39 59 32 58 237 152 374 172 86 13 236 3
335 -20z"/>
<path d="M1802 3768 c-13 -13 -16 -56 -6 -82 4 -9 18 -16 33 -16 58 0 68 101
11 108 -14 2 -31 -3 -38 -10z"/>
<path d="M2590 3761 c-25 -48 -3 -96 42 -89 27 4 44 44 34 82 -5 21 -12 26
-36 26 -19 0 -33 -7 -40 -19z"/>
<path d="M2123 3483 c-7 -2 -13 -11 -13 -19 0 -12 17 -13 98 -8 109 6 122 9
122 24 0 10 -183 13 -207 3z"/>
</g>
</svg>
